<svg width="982" height="982" viewBox="0 0 982 982" fill="none" xmlns="http://www.w3.org/2000/svg">
<path d="M491.175 376.175C427.575 376.175 376.275 427.475 376.275 491.075C376.275 554.675 427.575 605.975 491.175 605.975C554.775 605.975 606.075 554.675 606.075 491.075C606.075 427.475 554.775 376.175 491.175 376.175ZM491.175 565.775C450.075 565.775 416.475 532.275 416.475 491.075C416.475 449.875 449.975 416.375 491.175 416.375C532.375 416.375 565.875 449.875 565.875 491.075C565.875 532.275 532.275 565.775 491.175 565.775V565.775ZM637.575 371.475C637.575 386.375 625.575 398.275 610.775 398.275C595.875 398.275 583.975 386.275 583.975 371.475C583.975 356.675 595.975 344.675 610.775 344.675C625.575 344.675 637.575 356.675 637.575 371.475ZM713.675 398.675C711.975 362.775 703.775 330.975 677.475 304.775C651.275 278.575 619.475 270.375 583.575 268.575C546.575 266.475 435.675 266.475 398.675 268.575C362.875 270.275 331.075 278.475 304.775 304.675C278.475 330.875 270.375 362.675 268.575 398.575C266.475 435.575 266.475 546.475 268.575 583.475C270.275 619.375 278.475 651.175 304.775 677.375C331.075 703.575 362.775 711.775 398.675 713.575C435.675 715.675 546.575 715.675 583.575 713.575C619.475 711.875 651.275 703.675 677.475 677.375C703.675 651.175 711.875 619.375 713.675 583.475C715.775 546.475 715.775 435.675 713.675 398.675V398.675ZM665.875 623.175C658.075 642.775 642.975 657.875 623.275 665.775C593.775 677.475 523.775 674.775 491.175 674.775C458.575 674.775 388.475 677.375 359.075 665.775C339.475 657.975 324.375 642.875 316.475 623.175C304.775 593.675 307.475 523.675 307.475 491.075C307.475 458.475 304.875 388.375 316.475 358.975C324.275 339.375 339.375 324.275 359.075 316.375C388.575 304.675 458.575 307.375 491.175 307.375C523.775 307.375 593.875 304.775 623.275 316.375C642.875 324.175 657.975 339.275 665.875 358.975C677.575 388.475 674.875 458.475 674.875 491.075C674.875 523.675 677.575 593.775 665.875 623.175Z" fill="white"/>
<circle cx="491" cy="491" r="481" stroke="white" stroke-width="20"/>
</svg>
