<svg width="982" height="982" viewBox="0 0 982 982" fill="none" xmlns="http://www.w3.org/2000/svg">
<path d="M694.37 386.634C694.695 391.182 694.695 395.731 694.695 400.279C694.695 538.999 589.112 698.837 396.137 698.837C336.685 698.837 281.457 681.618 235 651.731C243.447 652.705 251.568 653.03 260.34 653.03C309.395 653.03 354.553 636.462 390.614 608.198C344.482 607.223 305.822 577.01 292.502 535.426C299 536.4 305.497 537.05 312.32 537.05C321.741 537.05 331.163 535.75 339.934 533.477C291.853 523.73 255.791 481.497 255.791 430.492V429.193C269.76 436.99 286.005 441.863 303.222 442.512C274.958 423.669 256.441 391.507 256.441 355.121C256.441 335.629 261.638 317.761 270.735 302.167C322.39 365.842 400.035 407.425 487.1 411.974C485.476 404.177 484.501 396.056 484.501 387.934C484.501 330.106 531.283 283 589.435 283C619.648 283 646.937 295.67 666.105 316.137C689.82 311.589 712.561 302.817 732.704 290.797C724.906 315.163 708.338 335.63 686.572 348.624C707.689 346.351 728.156 340.502 746.998 332.381C732.706 353.172 714.837 371.689 694.37 386.634V386.634Z" fill="white"/>
<circle cx="491" cy="491" r="481" stroke="white" stroke-width="20"/>
</svg>
